<?xml version="1.0" encoding="UTF-8"?>
<svg xmlns="http://www.w3.org/2000/svg" xmlns:xlink="http://www.w3.org/1999/xlink" width="64px" height="64px" viewBox="0 0 64 63" version="1.1">
<g id="surface1">
<path style=" stroke:none;fill-rule:nonzero;fill:rgb(0%,0%,0%);fill-opacity:1;" d="M 41.902344 14.636719 C 41.632812 14.847656 40.824219 15.570312 40.179688 16.171875 C 39.867188 16.464844 39.164062 17.476562 38.941406 17.949219 C 38.390625 19.117188 38.273438 19.9375 38.371094 21.910156 C 38.40625 22.65625 38.398438 22.757812 38.3125 23.160156 C 38.253906 23.402344 38.164062 23.707031 38.113281 23.839844 C 38.027344 24.050781 37.996094 24.089844 37.796875 24.15625 C 37.035156 24.425781 36.183594 24.914062 35.640625 25.378906 C 35.535156 25.472656 35.316406 25.648438 35.15625 25.769531 C 34.683594 26.136719 33.820312 27.347656 33.539062 28.050781 C 33.269531 28.734375 33.203125 29.132812 33.203125 30.085938 C 33.210938 30.785156 33.222656 30.984375 33.308594 31.308594 C 33.363281 31.523438 33.40625 31.707031 33.398438 31.71875 C 33.351562 31.757812 32.835938 30.679688 32.707031 30.273438 C 32.625 30.019531 32.527344 29.726562 32.484375 29.625 C 32.445312 29.523438 32.367188 29.308594 32.304688 29.152344 C 32.25 28.992188 32.152344 28.792969 32.085938 28.710938 C 32.023438 28.628906 31.863281 28.382812 31.738281 28.167969 C 31.441406 27.671875 30.796875 27.058594 30.328125 26.8125 C 29.675781 26.472656 28.441406 26.234375 27.648438 26.28125 C 26.566406 26.347656 25.984375 26.582031 25.214844 27.253906 C 24.851562 27.5625 24.160156 28.511719 24.113281 28.753906 C 24.0625 29.015625 24.324219 29.191406 24.523438 29.03125 C 24.566406 29.003906 24.6875 28.816406 24.800781 28.617188 C 25.339844 27.664062 26.144531 27.046875 27.066406 26.886719 C 27.886719 26.738281 28.617188 26.796875 29.515625 27.085938 C 30.109375 27.269531 30.464844 27.488281 30.855469 27.902344 C 31.292969 28.367188 31.832031 29.28125 32.003906 29.855469 C 32.351562 31.019531 32.761719 31.855469 33.28125 32.472656 C 33.6875 32.953125 34.089844 33.445312 34.226562 33.625 C 34.890625 34.519531 35.65625 35.121094 36.648438 35.53125 C 37.074219 35.707031 37.578125 35.832031 38.179688 35.90625 C 38.429688 35.9375 38.636719 35.980469 38.636719 35.992188 C 38.636719 36.011719 38.59375 36.082031 38.542969 36.144531 C 38.484375 36.210938 38.386719 36.386719 38.316406 36.535156 L 38.1875 36.804688 L 38.164062 39.839844 L 38.140625 42.871094 L 38.003906 42.886719 C 37.933594 42.894531 37.820312 42.890625 37.761719 42.878906 C 37.699219 42.859375 37.058594 42.269531 36.34375 41.5625 C 35.234375 40.472656 32.007812 37.351562 30.714844 36.117188 C 30.183594 35.613281 30.160156 35.601562 29.472656 35.601562 C 29.164062 35.601562 28.914062 35.585938 28.921875 35.570312 C 28.933594 35.554688 29.050781 35.511719 29.1875 35.480469 C 29.6875 35.363281 30.164062 35.078125 30.855469 34.480469 C 31.617188 33.816406 32.140625 32.789062 32.140625 31.941406 C 32.140625 31.683594 32.128906 31.632812 32.039062 31.574219 C 31.8125 31.417969 31.632812 31.523438 31.570312 31.851562 C 31.542969 31.976562 31.507812 32.214844 31.488281 32.378906 C 31.421875 32.867188 31.273438 33.171875 30.898438 33.621094 C 30.53125 34.050781 30.09375 34.425781 29.742188 34.605469 C 29.109375 34.917969 28.371094 35.054688 27.707031 34.972656 C 26.347656 34.8125 25.648438 34.386719 24.933594 33.277344 C 24.132812 32.03125 23.996094 31.859375 23.730469 31.75 C 23.269531 31.554688 22.941406 31.753906 22.445312 32.546875 C 22.238281 32.878906 21.660156 33.511719 21.292969 33.800781 C 20.671875 34.300781 20.128906 34.605469 19.507812 34.804688 C 18.710938 35.058594 18.167969 35.082031 17.449219 34.898438 C 16.703125 34.714844 16.316406 34.492188 15.675781 33.890625 C 15.003906 33.25 14.734375 32.847656 14.363281 31.945312 L 14.09375 31.292969 L 14.09375 30.410156 C 14.09375 29.398438 14.175781 28.910156 14.503906 27.957031 C 14.835938 26.988281 15.007812 26.714844 15.808594 25.871094 C 16.941406 24.664062 18.261719 23.996094 19.507812 23.996094 C 20.660156 23.996094 21.585938 24.445312 21.972656 25.1875 C 22.140625 25.515625 22.351562 25.734375 22.570312 25.800781 C 22.785156 25.875 22.988281 25.761719 23.140625 25.476562 C 23.242188 25.285156 23.246094 25.234375 23.234375 24.597656 C 23.21875 23.996094 23.199219 23.890625 23.082031 23.582031 C 22.949219 23.246094 22.542969 22.578125 22.226562 22.203125 C 22.007812 21.9375 21.773438 21.429688 21.8125 21.308594 C 21.863281 21.152344 22.121094 21 22.519531 20.890625 C 23.441406 20.652344 23.546875 20.609375 23.726562 20.425781 C 23.9375 20.207031 24.179688 19.730469 24.371094 19.140625 C 24.652344 18.300781 24.566406 18.078125 23.835938 17.738281 C 23.28125 17.472656 23.234375 17.4375 22.882812 16.945312 C 22.367188 16.21875 22.019531 15.980469 21.554688 16.042969 C 21.332031 16.070312 21.304688 16.042969 21.222656 15.714844 C 21.15625 15.441406 21.1875 15.332031 21.421875 14.96875 C 21.636719 14.628906 21.570312 14.363281 21.304688 14.488281 C 21.148438 14.558594 20.523438 15.085938 19.839844 15.722656 C 19.015625 16.480469 19.0625 16.425781 18.546875 17.191406 C 18.160156 17.753906 18.046875 17.96875 17.863281 18.460938 C 17.453125 19.554688 17.371094 20.179688 17.457031 21.449219 C 17.53125 22.414062 17.511719 22.871094 17.386719 23.285156 C 17.308594 23.566406 17.296875 23.578125 17.085938 23.652344 C 16.015625 24.039062 15.5 24.40625 14.46875 25.546875 C 13.929688 26.144531 13.808594 26.3125 13.40625 27.03125 C 13.152344 27.484375 12.761719 28.730469 12.628906 29.53125 C 12.546875 30.03125 12.578125 30.878906 12.707031 31.546875 C 12.78125 31.945312 13.035156 32.71875 13.179688 32.992188 C 13.398438 33.414062 13.703125 33.863281 13.945312 34.121094 C 14.304688 34.507812 15.0625 35.0625 15.5625 35.308594 C 15.777344 35.414062 15.953125 35.515625 15.953125 35.535156 C 15.953125 35.582031 15.835938 35.609375 15.441406 35.644531 C 15.101562 35.679688 14.613281 35.894531 14.335938 36.136719 C 14.246094 36.214844 14.109375 36.394531 14.039062 36.539062 L 13.90625 36.804688 L 13.890625 40.945312 C 13.882812 43.734375 13.894531 45.101562 13.929688 45.140625 C 13.96875 45.183594 14.253906 45.191406 15.144531 45.179688 C 15.785156 45.171875 16.335938 45.152344 16.367188 45.140625 C 16.410156 45.128906 16.421875 44.34375 16.421875 41.460938 C 16.421875 39.023438 16.4375 37.761719 16.46875 37.703125 C 16.507812 37.640625 16.570312 37.613281 16.6875 37.613281 C 16.84375 37.613281 16.945312 37.703125 18.230469 38.972656 C 18.988281 39.714844 20.386719 41.078125 21.347656 42.007812 C 22.300781 42.929688 23.355469 43.953125 23.6875 44.28125 C 24.105469 44.683594 24.386719 44.921875 24.558594 45.007812 L 24.824219 45.140625 L 26.28125 45.140625 C 27.570312 45.140625 27.761719 45.132812 27.886719 45.0625 C 28.117188 44.9375 28.460938 44.53125 28.523438 44.316406 C 28.558594 44.179688 28.574219 43.195312 28.570312 40.96875 C 28.566406 38.921875 28.578125 37.773438 28.605469 37.695312 C 28.714844 37.414062 29.132812 37.636719 29.640625 38.238281 C 29.726562 38.34375 30.234375 38.851562 30.773438 39.375 C 31.304688 39.898438 32.273438 40.855469 32.921875 41.507812 C 34.53125 43.113281 35.960938 44.492188 36.328125 44.792969 C 36.824219 45.191406 36.851562 45.203125 38.070312 45.207031 C 38.652344 45.210938 39.359375 45.191406 39.640625 45.171875 C 40.128906 45.128906 40.160156 45.117188 40.304688 44.980469 C 40.390625 44.898438 40.523438 44.703125 40.597656 44.542969 L 40.730469 44.261719 L 40.734375 40.695312 C 40.742188 37.257812 40.742188 37.109375 40.84375 36.578125 C 40.949219 36.003906 41.109375 35.613281 41.285156 35.519531 C 41.332031 35.496094 41.492188 35.4375 41.636719 35.386719 C 41.785156 35.335938 42.050781 35.210938 42.226562 35.105469 C 42.640625 34.859375 43.363281 34.222656 43.605469 33.898438 C 43.703125 33.765625 43.863281 33.5625 43.957031 33.445312 C 44.203125 33.144531 44.363281 32.835938 44.550781 32.3125 C 44.703125 31.882812 44.714844 31.796875 44.738281 31.125 C 44.777344 30.179688 44.804688 30.21875 43.972656 30.199219 C 43.167969 30.175781 40.328125 30.203125 40.222656 30.234375 C 40.089844 30.269531 40.027344 30.472656 40.113281 30.597656 C 40.175781 30.683594 40.246094 30.699219 40.832031 30.75 C 41.285156 30.78125 41.6875 30.785156 42.164062 30.753906 C 42.542969 30.726562 43.105469 30.722656 43.425781 30.742188 C 44.089844 30.773438 44.0625 30.734375 43.925781 31.332031 C 43.617188 32.695312 43.3125 33.253906 42.492188 33.984375 C 41.878906 34.523438 41.519531 34.714844 40.390625 35.09375 C 39.894531 35.261719 38.675781 35.371094 38.109375 35.296875 C 36.730469 35.128906 35.46875 34.210938 34.867188 32.9375 C 34.488281 32.148438 34.230469 31.332031 34.167969 30.769531 C 34.09375 30.097656 34.105469 29.839844 34.214844 29.308594 C 34.46875 28.082031 35.25 26.882812 36.542969 25.75 C 37.242188 25.136719 37.796875 24.792969 38.636719 24.453125 C 38.828125 24.375 39.03125 24.28125 39.082031 24.25 C 39.140625 24.21875 39.351562 24.152344 39.554688 24.105469 C 40.09375 23.980469 41.824219 23.980469 42.375 24.105469 C 42.972656 24.242188 43.144531 24.367188 43.675781 25.078125 C 43.925781 25.414062 43.953125 25.4375 44.007812 25.402344 C 44.222656 25.273438 44.257812 24.34375 44.074219 23.726562 C 43.96875 23.355469 43.589844 22.722656 43.175781 22.210938 C 42.984375 21.972656 42.78125 21.632812 42.730469 21.449219 C 42.636719 21.117188 42.828125 20.96875 43.605469 20.78125 C 44.382812 20.585938 44.523438 20.515625 44.757812 20.1875 C 45.066406 19.746094 45.410156 18.8125 45.410156 18.40625 C 45.410156 18.09375 45.261719 17.9375 44.726562 17.671875 C 44.460938 17.542969 44.210938 17.414062 44.167969 17.375 C 44.121094 17.339844 43.953125 17.117188 43.789062 16.886719 C 43.28125 16.167969 42.988281 15.96875 42.453125 15.964844 L 42.191406 15.957031 L 42.132812 15.726562 C 42.054688 15.441406 42.085938 15.253906 42.246094 15.027344 C 42.390625 14.8125 42.492188 14.550781 42.460938 14.46875 C 42.414062 14.339844 42.1875 14.410156 41.902344 14.636719 Z M 41.929688 15.054688 C 41.816406 15.273438 41.8125 15.515625 41.90625 15.824219 C 41.984375 16.078125 42.015625 16.023438 41.628906 16.320312 C 41.433594 16.464844 41.359375 16.679688 41.425781 16.875 C 41.476562 17.023438 41.566406 17.078125 41.765625 17.09375 C 42.039062 17.113281 42.109375 17.09375 42.257812 16.953125 C 42.398438 16.824219 42.40625 16.800781 42.394531 16.527344 L 42.382812 16.238281 L 42.546875 16.230469 C 42.636719 16.230469 42.757812 16.246094 42.824219 16.269531 C 43.003906 16.332031 43.316406 16.65625 43.648438 17.121094 C 43.960938 17.5625 44.167969 17.738281 44.519531 17.859375 C 44.710938 17.921875 44.847656 18.027344 44.847656 18.117188 C 44.847656 18.136719 44.753906 18.113281 44.640625 18.0625 C 44.390625 17.953125 43.746094 17.890625 43.699219 17.96875 C 43.675781 18.007812 43.761719 18.019531 43.984375 18.019531 C 44.175781 18.023438 44.414062 18.058594 44.566406 18.113281 C 44.707031 18.160156 44.835938 18.1875 44.855469 18.175781 C 44.875 18.164062 44.925781 18.214844 44.972656 18.285156 C 45.019531 18.351562 45.078125 18.425781 45.101562 18.441406 C 45.164062 18.488281 45.097656 18.773438 44.890625 19.316406 C 44.554688 20.191406 44.417969 20.316406 43.570312 20.527344 C 42.777344 20.714844 42.507812 20.890625 42.460938 21.253906 C 42.4375 21.410156 42.464844 21.503906 42.613281 21.78125 C 42.707031 21.964844 42.832031 22.171875 42.894531 22.234375 C 43.144531 22.507812 43.664062 23.382812 43.765625 23.695312 C 43.855469 23.992188 43.953125 24.78125 43.894531 24.78125 C 43.882812 24.78125 43.816406 24.703125 43.753906 24.605469 C 43.421875 24.117188 42.738281 23.691406 42.050781 23.550781 C 41.746094 23.492188 41.476562 23.480469 40.617188 23.496094 L 39.554688 23.519531 L 38.980469 23.703125 C 38.660156 23.808594 38.398438 23.890625 38.398438 23.882812 C 38.398438 23.871094 38.542969 23.265625 38.589844 23.078125 C 38.617188 22.957031 38.628906 22.3125 38.625 21.363281 C 38.613281 20.039062 38.621094 19.804688 38.695312 19.480469 C 39.007812 18.132812 39.585938 17.117188 40.582031 16.152344 C 41.089844 15.660156 41.972656 14.871094 42.007812 14.871094 C 42.019531 14.871094 41.980469 14.953125 41.929688 15.054688 Z M 21.035156 15.101562 C 20.921875 15.316406 20.917969 15.59375 21.011719 15.90625 C 21.050781 16.03125 21.078125 16.140625 21.074219 16.144531 C 20.535156 16.480469 20.394531 16.71875 20.566406 16.988281 C 20.726562 17.246094 21.117188 17.25 21.375 16.996094 C 21.507812 16.867188 21.515625 16.839844 21.496094 16.582031 C 21.472656 16.257812 21.5 16.238281 21.824219 16.308594 C 22.105469 16.371094 22.304688 16.554688 22.710938 17.125 C 23.0625 17.625 23.257812 17.792969 23.632812 17.933594 C 23.871094 18.019531 23.921875 18.058594 23.992188 18.222656 C 24.042969 18.324219 24.113281 18.441406 24.15625 18.476562 C 24.203125 18.511719 24.234375 18.582031 24.234375 18.625 C 24.234375 18.773438 23.859375 19.746094 23.703125 20.003906 C 23.507812 20.328125 23.304688 20.441406 22.660156 20.589844 C 21.886719 20.769531 21.554688 21.007812 21.554688 21.390625 C 21.554688 21.574219 21.761719 21.988281 22 22.300781 C 22.328125 22.722656 22.730469 23.375 22.855469 23.699219 C 22.964844 23.976562 22.984375 24.082031 22.984375 24.5625 C 22.988281 24.855469 22.96875 25.117188 22.949219 25.136719 C 22.925781 25.160156 22.738281 24.996094 22.527344 24.773438 C 21.960938 24.179688 21.46875 23.890625 20.527344 23.578125 C 19.8125 23.34375 18.96875 23.300781 17.929688 23.441406 C 17.765625 23.460938 17.625 23.476562 17.617188 23.472656 C 17.613281 23.46875 17.636719 23.347656 17.675781 23.207031 C 17.726562 23.007812 17.742188 22.632812 17.730469 21.449219 C 17.71875 20.121094 17.726562 19.894531 17.808594 19.546875 C 17.914062 19.042969 18.136719 18.398438 18.316406 18.042969 C 18.492188 17.6875 19.105469 16.78125 19.332031 16.542969 C 19.496094 16.363281 21.085938 14.917969 21.117188 14.917969 C 21.125 14.917969 21.085938 15 21.035156 15.101562 Z M 42.136719 16.40625 C 42.214844 16.703125 42.09375 16.878906 41.824219 16.851562 C 41.585938 16.828125 41.589844 16.679688 41.839844 16.472656 C 42.074219 16.277344 42.097656 16.273438 42.136719 16.40625 Z M 21.25 16.5625 C 21.296875 16.8125 21.101562 16.996094 20.875 16.90625 C 20.703125 16.84375 20.71875 16.707031 20.925781 16.542969 C 21.152344 16.355469 21.214844 16.363281 21.25 16.5625 Z M 23.777344 32.613281 C 23.84375 32.664062 24.042969 32.929688 24.214844 33.203125 C 24.691406 33.957031 25.019531 34.3125 25.683594 34.796875 C 25.886719 34.945312 26.183594 35.128906 26.351562 35.207031 C 26.523438 35.285156 26.691406 35.367188 26.730469 35.386719 C 26.765625 35.410156 26.921875 35.460938 27.074219 35.503906 C 27.324219 35.570312 27.398438 35.667969 27.210938 35.667969 C 26.882812 35.671875 26.214844 36.257812 26.121094 36.613281 C 26.085938 36.757812 26.070312 37.757812 26.070312 39.839844 C 26.070312 41.832031 26.050781 42.886719 26.023438 42.945312 C 25.992188 43.003906 25.925781 43.035156 25.824219 43.035156 C 25.714844 43.035156 25.609375 42.96875 25.328125 42.699219 C 25.128906 42.519531 24.871094 42.25 24.753906 42.113281 C 24.628906 41.96875 24.292969 41.621094 23.996094 41.34375 C 21.40625 38.882812 18.445312 36.019531 18.394531 35.929688 C 18.328125 35.820312 18.40625 35.761719 18.617188 35.761719 C 18.835938 35.761719 19.894531 35.453125 20.230469 35.292969 C 20.394531 35.214844 20.734375 34.996094 20.984375 34.8125 C 21.433594 34.472656 22.492188 33.453125 22.660156 33.191406 C 22.765625 33.023438 23.109375 32.601562 23.175781 32.554688 C 23.273438 32.480469 23.65625 32.519531 23.777344 32.613281 Z M 23.777344 32.613281 "/>
<path style=" stroke:none;fill-rule:nonzero;fill:rgb(0%,0%,0%);fill-opacity:1;" d="M 44.375 18.523438 C 44.066406 18.609375 43.546875 18.84375 43.589844 18.882812 C 43.601562 18.890625 43.746094 18.839844 43.910156 18.761719 C 44.074219 18.6875 44.335938 18.597656 44.484375 18.566406 C 44.628906 18.535156 44.753906 18.492188 44.753906 18.472656 C 44.753906 18.425781 44.738281 18.425781 44.375 18.523438 Z M 44.375 18.523438 "/>
<path style=" stroke:none;fill-rule:nonzero;fill:rgb(0%,0%,0%);fill-opacity:1;" d="M 44.53125 18.941406 C 44.210938 19.207031 43.925781 19.492188 43.957031 19.519531 C 43.96875 19.53125 44.175781 19.355469 44.417969 19.128906 C 44.660156 18.898438 44.847656 18.714844 44.832031 18.714844 C 44.820312 18.714844 44.683594 18.816406 44.53125 18.941406 Z M 44.53125 18.941406 "/>
<path style=" stroke:none;fill-rule:nonzero;fill:rgb(0%,0%,0%);fill-opacity:1;" d="M 22.710938 18.011719 C 22.695312 18.035156 22.832031 18.066406 23.027344 18.078125 C 23.214844 18.09375 23.46875 18.140625 23.589844 18.1875 C 23.902344 18.292969 23.925781 18.238281 23.613281 18.121094 C 23.328125 18.019531 22.753906 17.945312 22.710938 18.011719 Z M 22.710938 18.011719 "/>
<path style=" stroke:none;fill-rule:nonzero;fill:rgb(0%,0%,0%);fill-opacity:1;" d="M 23.199219 18.640625 C 22.851562 18.761719 22.605469 18.875 22.566406 18.945312 C 22.523438 19.015625 22.550781 19.007812 22.859375 18.855469 C 23.019531 18.78125 23.28125 18.6875 23.433594 18.648438 C 23.59375 18.613281 23.742188 18.570312 23.753906 18.558594 C 23.816406 18.492188 23.476562 18.542969 23.199219 18.640625 Z M 23.199219 18.640625 "/>
<path style=" stroke:none;fill-rule:nonzero;fill:rgb(0%,0%,0%);fill-opacity:1;" d="M 23.441406 19.09375 C 23.257812 19.257812 23.074219 19.4375 23.027344 19.503906 C 22.984375 19.566406 23.117188 19.464844 23.324219 19.273438 C 23.523438 19.085938 23.726562 18.898438 23.765625 18.867188 C 23.800781 18.835938 23.816406 18.808594 23.800781 18.808594 C 23.785156 18.808594 23.617188 18.9375 23.441406 19.09375 Z M 23.441406 19.09375 "/>
<path style=" stroke:none;fill-rule:nonzero;fill:rgb(0%,0%,0%);fill-opacity:1;" d="M 49.394531 26.519531 C 49.324219 26.558594 49.144531 26.589844 49.003906 26.589844 C 48.777344 26.589844 48.683594 26.625 48.175781 26.898438 C 47.859375 27.066406 47.507812 27.285156 47.386719 27.378906 C 47.269531 27.472656 47.078125 27.59375 46.960938 27.644531 C 46.765625 27.726562 46.71875 27.78125 46.542969 28.101562 C 46.429688 28.304688 46.269531 28.539062 46.1875 28.632812 C 46.078125 28.753906 46.015625 28.890625 45.960938 29.132812 C 45.921875 29.316406 45.839844 29.53125 45.789062 29.605469 C 45.703125 29.714844 45.695312 29.789062 45.707031 30.050781 C 45.722656 30.269531 45.707031 30.410156 45.660156 30.511719 C 45.613281 30.613281 45.601562 30.730469 45.617188 30.859375 C 45.636719 30.972656 45.65625 31.207031 45.660156 31.394531 C 45.671875 31.644531 45.695312 31.75 45.765625 31.824219 C 45.832031 31.894531 45.847656 31.976562 45.839844 32.152344 C 45.832031 32.367188 45.84375 32.402344 45.992188 32.539062 C 46.085938 32.621094 46.207031 32.792969 46.273438 32.917969 C 46.429688 33.210938 46.808594 33.648438 47.089844 33.863281 C 47.21875 33.957031 47.355469 34.101562 47.398438 34.195312 C 47.476562 34.367188 47.660156 34.464844 47.890625 34.464844 C 48.027344 34.464844 48.320312 34.644531 48.351562 34.75 C 48.390625 34.859375 48.640625 34.972656 48.832031 34.972656 C 48.921875 34.972656 49.074219 35.015625 49.171875 35.0625 C 49.433594 35.195312 49.820312 35.320312 50.179688 35.390625 C 50.351562 35.429688 50.492188 35.46875 50.492188 35.492188 C 50.492188 35.511719 50.167969 35.53125 49.777344 35.535156 C 47.386719 35.546875 46.03125 35.578125 45.578125 35.621094 C 44.734375 35.707031 44.089844 35.976562 43.714844 36.402344 C 43.441406 36.703125 43.148438 37.398438 43.035156 38.007812 C 43.015625 38.109375 43.003906 39.144531 43.007812 40.3125 C 43.015625 42.710938 43.027344 42.804688 43.398438 43.542969 C 43.546875 43.84375 43.671875 44.011719 43.921875 44.25 C 44.214844 44.53125 44.738281 44.886719 44.851562 44.886719 C 44.875 44.886719 45.019531 44.949219 45.167969 45.023438 C 45.3125 45.097656 45.535156 45.171875 45.660156 45.1875 C 45.785156 45.203125 45.882812 45.234375 45.882812 45.261719 C 45.882812 45.332031 47.5625 45.316406 47.59375 45.246094 C 47.617188 45.199219 47.628906 45.199219 47.652344 45.246094 C 47.671875 45.289062 48.183594 45.304688 49.980469 45.304688 C 51.265625 45.304688 52.28125 45.285156 52.28125 45.261719 C 52.28125 45.238281 52.53125 45.210938 52.835938 45.203125 C 53.332031 45.179688 53.433594 45.160156 53.835938 45.007812 C 54.4375 44.777344 54.582031 44.699219 54.941406 44.417969 C 55.316406 44.128906 55.726562 43.628906 55.847656 43.296875 C 56 42.910156 56.03125 42.335938 56.023438 40.253906 C 56.015625 38.433594 56.003906 38.25 55.910156 37.800781 C 55.796875 37.257812 55.660156 37.003906 55.273438 36.605469 C 54.683594 35.992188 53.832031 35.621094 53.035156 35.621094 C 52.882812 35.621094 52.742188 35.601562 52.730469 35.578125 C 52.714844 35.546875 52.613281 35.53125 52.503906 35.527344 C 52.316406 35.519531 52.320312 35.515625 52.636719 35.4375 C 53.105469 35.320312 53.324219 35.234375 53.867188 34.949219 C 54.390625 34.679688 54.691406 34.546875 55.421875 34.273438 C 56.179688 33.992188 57.1875 33.945312 57.5 34.175781 C 57.675781 34.300781 57.832031 34.589844 57.863281 34.847656 C 57.925781 35.296875 58.394531 35.34375 58.398438 34.898438 C 58.40625 34.472656 58.074219 33.9375 57.699219 33.746094 C 57.335938 33.570312 56.867188 33.476562 56.492188 33.511719 C 55.652344 33.585938 54.785156 33.871094 53.640625 34.449219 C 53.078125 34.738281 52.703125 34.882812 52.210938 34.996094 C 51.84375 35.085938 50.777344 35.0625 50.777344 34.964844 C 50.777344 34.90625 51.019531 34.8125 51.410156 34.71875 C 52.019531 34.574219 52.085938 34.546875 52.136719 34.4375 C 52.164062 34.375 52.214844 34.324219 52.25 34.324219 C 52.28125 34.324219 52.363281 34.273438 52.421875 34.210938 C 52.492188 34.136719 52.582031 34.09375 52.683594 34.09375 C 52.9375 34.09375 53.128906 33.898438 53.148438 33.617188 C 53.152344 33.539062 53.195312 33.453125 53.246094 33.425781 C 53.292969 33.398438 53.386719 33.328125 53.457031 33.269531 C 53.53125 33.214844 53.625 33.167969 53.664062 33.167969 C 53.707031 33.167969 53.808594 33.070312 53.886719 32.945312 C 54 32.773438 54.023438 32.695312 54.003906 32.570312 C 53.992188 32.46875 54.015625 32.34375 54.070312 32.214844 C 54.121094 32.101562 54.164062 31.945312 54.164062 31.859375 C 54.167969 31.777344 54.199219 31.582031 54.234375 31.429688 C 54.351562 30.953125 54.375 30.335938 54.292969 30.003906 C 54.25 29.847656 54.203125 29.601562 54.1875 29.457031 C 54.164062 29.242188 54.132812 29.164062 53.996094 29.027344 C 53.910156 28.933594 53.835938 28.832031 53.835938 28.800781 C 53.835938 28.773438 53.773438 28.628906 53.695312 28.488281 C 53.617188 28.351562 53.558594 28.195312 53.554688 28.144531 C 53.554688 28.042969 53.238281 27.734375 53.171875 27.769531 C 53.121094 27.804688 52.71875 27.441406 52.683594 27.328125 C 52.648438 27.230469 52.429688 27.097656 52.296875 27.097656 C 52.253906 27.097656 52.054688 27.015625 51.859375 26.917969 C 51.664062 26.816406 51.359375 26.699219 51.175781 26.660156 C 50.996094 26.613281 50.808594 26.546875 50.765625 26.511719 C 50.691406 26.445312 50.589844 26.445312 49.953125 26.507812 C 49.902344 26.511719 49.785156 26.496094 49.695312 26.480469 C 49.582031 26.460938 49.488281 26.46875 49.394531 26.519531 Z M 50.480469 27.316406 C 50.761719 27.691406 51.015625 28.109375 51.148438 28.414062 L 51.246094 28.636719 L 51.144531 28.765625 C 51.082031 28.839844 51.019531 28.902344 51.007812 28.902344 C 50.992188 28.90625 50.957031 28.808594 50.925781 28.683594 C 50.847656 28.332031 50.601562 27.746094 50.382812 27.363281 C 50.269531 27.167969 50.1875 27.007812 50.207031 27.007812 C 50.226562 27.007812 50.347656 27.144531 50.480469 27.316406 Z M 49.589844 27.316406 C 49.863281 27.710938 50.054688 28.113281 50.230469 28.640625 C 50.476562 29.375 50.476562 29.382812 50.257812 29.527344 C 50.15625 29.589844 50.054688 29.648438 50.03125 29.648438 C 50.007812 29.648438 49.976562 29.476562 49.960938 29.261719 C 49.925781 28.777344 49.746094 28.078125 49.53125 27.59375 C 49.433594 27.386719 49.347656 27.179688 49.332031 27.132812 C 49.28125 26.964844 49.417969 27.0625 49.589844 27.316406 Z M 51.695312 27.386719 C 51.847656 27.464844 51.984375 27.535156 51.992188 27.542969 C 52.019531 27.566406 51.75 28.027344 51.707031 28.027344 C 51.6875 28.027344 51.671875 28.007812 51.671875 27.988281 C 51.671875 27.964844 51.566406 27.777344 51.441406 27.566406 C 51.175781 27.140625 51.179688 27.136719 51.695312 27.386719 Z M 48.753906 27.46875 C 48.804688 27.570312 48.847656 27.664062 48.847656 27.683594 C 48.847656 27.695312 48.765625 27.695312 48.671875 27.679688 C 48.574219 27.660156 48.371094 27.632812 48.222656 27.613281 L 47.945312 27.585938 L 48.261719 27.414062 C 48.441406 27.320312 48.601562 27.257812 48.621094 27.265625 C 48.644531 27.28125 48.703125 27.371094 48.753906 27.46875 Z M 52.847656 28.308594 C 52.847656 28.339844 52.757812 28.515625 52.648438 28.691406 C 51.839844 30.050781 50.644531 30.921875 49.011719 31.34375 C 48.542969 31.46875 47.144531 31.46875 46.625 31.34375 C 46.351562 31.28125 46.257812 31.242188 46.257812 31.179688 C 46.257812 31.117188 46.335938 31.105469 46.972656 31.121094 C 48.328125 31.148438 49.417969 30.84375 50.488281 30.136719 C 51.269531 29.625 52.03125 28.835938 52.417969 28.15625 L 52.542969 27.933594 L 52.695312 28.09375 C 52.777344 28.179688 52.847656 28.277344 52.847656 28.308594 Z M 48.75 28.332031 C 48.941406 28.367188 49.117188 28.410156 49.128906 28.429688 C 49.167969 28.476562 49.269531 28.828125 49.269531 28.914062 C 49.269531 28.964844 49.191406 28.957031 48.882812 28.855469 C 48.386719 28.691406 47.882812 28.589844 47.371094 28.554688 L 46.96875 28.519531 L 47.0625 28.390625 C 47.121094 28.308594 47.210938 28.257812 47.308594 28.242188 C 47.546875 28.210938 48.367188 28.261719 48.75 28.332031 Z M 53.433594 29.148438 L 53.546875 29.386719 L 53.449219 29.554688 C 52.933594 30.402344 52.351562 31.007812 51.570312 31.527344 C 50.589844 32.175781 49.179688 32.519531 48.039062 32.390625 C 47.496094 32.324219 46.921875 32.191406 46.628906 32.054688 L 46.421875 31.964844 L 46.613281 31.988281 C 47.832031 32.144531 48.59375 32.113281 49.492188 31.867188 C 50.121094 31.695312 51.003906 31.277344 51.507812 30.90625 C 52.117188 30.460938 52.917969 29.582031 53.199219 29.042969 C 53.242188 28.964844 53.285156 28.90625 53.296875 28.90625 C 53.3125 28.90625 53.375 29.011719 53.433594 29.148438 Z M 47.925781 29.257812 C 48.359375 29.347656 48.757812 29.472656 49.097656 29.613281 C 49.347656 29.726562 49.363281 29.746094 49.363281 29.890625 C 49.363281 30.03125 49.347656 30.054688 49.191406 30.105469 C 49.027344 30.15625 48.984375 30.152344 48.691406 30.023438 C 48.203125 29.804688 47.515625 29.609375 46.964844 29.53125 C 46.695312 29.488281 46.464844 29.449219 46.457031 29.4375 C 46.445312 29.429688 46.476562 29.355469 46.519531 29.277344 L 46.597656 29.125 L 47.089844 29.15625 C 47.363281 29.175781 47.742188 29.222656 47.925781 29.257812 Z M 47.480469 30.273438 C 47.726562 30.335938 47.949219 30.410156 47.96875 30.429688 C 48.0625 30.523438 46.410156 30.550781 46.261719 30.457031 C 46.246094 30.449219 46.238281 30.363281 46.25 30.269531 L 46.273438 30.097656 L 46.652344 30.125 C 46.859375 30.144531 47.238281 30.207031 47.480469 30.273438 Z M 53.726562 31.40625 L 53.664062 31.707031 L 53.492188 31.34375 C 53.398438 31.144531 53.316406 30.957031 53.316406 30.933594 C 53.316406 30.90625 53.417969 30.753906 53.542969 30.585938 L 53.765625 30.285156 L 53.777344 30.699219 C 53.785156 30.921875 53.761719 31.242188 53.726562 31.40625 Z M 52.960938 31.742188 C 53.261719 32.386719 53.285156 32.566406 53.121094 32.820312 C 53.058594 32.910156 52.996094 32.980469 52.980469 32.980469 C 52.964844 32.980469 52.921875 32.902344 52.890625 32.804688 C 52.855469 32.714844 52.738281 32.429688 52.625 32.1875 L 52.417969 31.734375 L 52.597656 31.574219 C 52.695312 31.480469 52.78125 31.40625 52.789062 31.40625 C 52.800781 31.40625 52.875 31.558594 52.960938 31.742188 Z M 51.339844 32.425781 C 51.339844 32.449219 51.292969 32.570312 51.238281 32.691406 C 50.941406 33.339844 50.734375 33.671875 50.316406 34.148438 C 50.113281 34.386719 50.023438 34.457031 49.953125 34.441406 C 49.902344 34.425781 49.777344 34.417969 49.683594 34.417969 L 49.511719 34.417969 L 49.832031 34.023438 C 50.007812 33.808594 50.269531 33.417969 50.414062 33.160156 C 50.667969 32.710938 50.6875 32.6875 50.972656 32.542969 C 51.304688 32.371094 51.339844 32.363281 51.339844 32.425781 Z M 52.359375 33.265625 L 52.4375 33.550781 L 52.3125 33.664062 C 52.160156 33.792969 52.097656 33.796875 52.066406 33.6875 C 52.046875 33.644531 52.007812 33.542969 51.976562 33.46875 C 51.796875 33.039062 51.796875 33.039062 51.878906 32.84375 C 51.921875 32.742188 51.953125 32.605469 51.953125 32.546875 C 51.953125 32.492188 51.96875 32.425781 51.984375 32.414062 C 52.023438 32.371094 52.25 32.886719 52.359375 33.265625 Z M 47.304688 32.910156 C 47.46875 32.945312 47.765625 32.992188 47.96875 33.011719 C 48.164062 33.027344 48.328125 33.054688 48.328125 33.070312 C 48.328125 33.089844 48.210938 33.242188 48.066406 33.414062 L 47.800781 33.722656 L 47.679688 33.636719 C 47.558594 33.546875 47.175781 33.167969 46.992188 32.945312 C 46.890625 32.824219 46.914062 32.820312 47.304688 32.910156 Z M 49.722656 33.0625 C 49.628906 33.246094 49.269531 33.703125 49.007812 33.992188 L 48.777344 34.242188 L 48.570312 34.15625 L 48.367188 34.066406 L 48.597656 33.792969 C 48.726562 33.640625 48.902344 33.410156 48.988281 33.285156 C 49.074219 33.152344 49.152344 33.042969 49.164062 33.027344 C 49.179688 33.011719 49.515625 32.953125 49.707031 32.941406 C 49.785156 32.9375 49.785156 32.945312 49.722656 33.0625 Z M 51.472656 33.949219 C 51.53125 34.109375 51.5 34.144531 51.25 34.226562 C 51.164062 34.257812 51.085938 34.28125 51.078125 34.28125 C 51.050781 34.28125 51.363281 33.820312 51.398438 33.820312 C 51.410156 33.816406 51.449219 33.875 51.472656 33.949219 Z M 52.800781 37.652344 C 53.027344 37.757812 53.339844 38.226562 53.378906 38.519531 C 53.398438 38.636719 53.410156 39.554688 53.410156 40.554688 L 53.410156 42.371094 L 53.261719 42.667969 C 53.082031 43.007812 52.902344 43.132812 52.476562 43.214844 C 52.160156 43.269531 46.925781 43.304688 46.683594 43.246094 C 46.292969 43.15625 45.800781 42.792969 45.726562 42.542969 C 45.636719 42.246094 45.601562 41.527344 45.601562 40.066406 C 45.601562 38.238281 45.601562 38.238281 45.886719 37.914062 C 46.167969 37.601562 46.1875 37.597656 48 37.582031 C 48.894531 37.574219 49.675781 37.558594 49.742188 37.554688 C 49.808594 37.546875 50.484375 37.550781 51.246094 37.558594 C 52.414062 37.574219 52.664062 37.589844 52.800781 37.652344 Z M 52.800781 37.652344 "/>
<path style=" stroke:none;fill-rule:nonzero;fill:rgb(0%,0%,0%);fill-opacity:1;" d="M 11.035156 35.609375 C 10.621094 35.65625 10.3125 35.8125 9.679688 36.289062 C 9.449219 36.460938 9.269531 36.636719 9.210938 36.753906 L 9.105469 36.941406 L 9.089844 41 C 9.082031 44.46875 9.085938 45.066406 9.148438 45.113281 C 9.226562 45.179688 11.457031 45.222656 11.589844 45.15625 C 11.664062 45.117188 11.671875 44.847656 11.671875 40.375 L 11.671875 35.632812 L 11.523438 35.605469 C 11.375 35.578125 11.292969 35.578125 11.035156 35.609375 Z M 11.035156 35.609375 "/>
</g>
</svg>
